{"title":"Operation.Petticoat.1959.720p.BluRay.x264-HD4U.mkv","uid":10810553,"size":4690382557,"categoryP":"video","categoryS":"hd___movies","magnet":"?xt=urn:btih:773bcb7af940a0234ec20fa28d25b5228d657d22&amp;dn=Operation.Petticoat.1959.720p.BluRay.x264-HD4U.mkv&amp;tr=udp%3A%2F%2Ftracker.openbittorrent.com%3A80&amp;tr=udp%3A%2F%2Fopen.demonii.com%3A1337&amp;tr=udp%3A%2F%2Ftracker.coppersurfer.tk%3A6969&amp;tr=udp%3A%2F%2Fexodus.desync.com%3A6969","seeders":1,"leechers":2,"uploader":"rpessoa","files":1,"time":1408424263,"description":"World War 2 comedy about a submarine commander who finds himself stuck with a decrepit (and pink) sub, a con-man executive officer and a group of army nurses.\n &lt;a href=&quot;\nhttp://www.imdb.com/title/tt0053143/&quot; rel=&quot;nofollow&quot; target=&quot;_NEW&quot;&gt;\nhttp://www.imdb.com/title/tt0053143/&lt;/a&gt;\n\nGeneral\nUnique ID : 192693405048211749050096713889056004027 (0x90F7665EFBB478478BF6C8B888AF97BB)\nComplete name : Operation.Petticoat.1959.720p.BluRay.x264-HD4U.mkv\nFormat : Matroska\nFormat version : Version 4 / Version 2\nFile size : 4.37 GiB\nDuration : 2h 0mn\nOverall bit rate : 5 180 Kbps\nEncoded date : UTC 2014-06-12 04:29:28\nWriting application : mkvmerge v6.2.0 ('Promised Land') built on Apr 28 2013 12:22:01\nWriting library : libebml v1.3.0 + libmatroska v1.4.0\n\nVideo\nID : 1\nFormat : AVC\nFormat/Info : Advanced Video Codec\nFormat profile : &lt;a class=&quot;__cf_email__&quot; href=&quot;/cdn-cgi/l/email-protection&quot; data-cfemail=&quot;4a02232d220a067e647b&quot;&gt;[email&amp;#160;protected]&lt;/a&gt;&lt;script cf-hash='f9e31' type=&quot;text/javascript&quot;&gt;\n/* &lt;![CDATA[ */!function(){try{var t=&quot;currentScript&quot;in document?document.currentScript:function(){for(var t=document.getElementsByTagName(&quot;script&quot;),e=t.length;e--;)if(t[e].getAttribute(&quot;cf-hash&quot;))return t[e]}();if(t&amp;&amp;t.previousSibling){var e,r,n,i,c=t.previousSibling,a=c.getAttribute(&quot;data-cfemail&quot;);if(a){for(e=&quot;&quot;,r=parseInt(a.substr(0,2),16),n=2;a.length-n;n+=2)i=parseInt(a.substr(n,2),16)^r,e+=String.fromCharCode(i);e=document.createTextNode(e),c.parentNode.replaceChild(e,c)}}}catch(u){}}();/* ]]&gt; */&lt;/script&gt;\nFormat settings, CABAC : Yes\nFormat settings, ReFrames : 5 frames\nCodec ID : V_MPEG4/ISO/AVC\nDuration : 2h 0mn\nBit rate : 4 410 Kbps\nWidth : 1 280 pixels\nHeight : 720 pixels\nDisplay aspect ratio : 16:9\nFrame rate : 23.976 fps\nColor space : YUV\nChroma subsampling : 4:2:0\nBit depth : 8 bits\nScan type : Progressive\nBits/(Pixel*Frame) : 0.200\nStream size : 3.65 GiB (83%)\nWriting library : x264 core 142 r2431 ac76440\nEncoding settings : cabac=1 / ref=5 / deblock=1:0:0 / analyse=0x3:0x133 / me=umh / subme=7 / psy=1 / psy_rd=1.00:0.00 / mixed_ref=1 / me_range=16 / chroma_me=1 / trellis=1 / 8x8dct=1 / cqm=0 / deadzone=21,11 / fast_pskip=0 / chroma_qp_offset=-2 / threads=18 / lookahead_threads=3 / sliced_threads=0 / nr=0 / decimate=1 / interlaced=0 / bluray_compat=0 / constrained_intra=0 / bframes=3 / b_pyramid=2 / b_adapt=1 / b_bias=0 / direct=1 / weightb=1 / open_gop=0 / weightp=2 / keyint=250 / keyint_min=23 / scenecut=40 / intra_refresh=0 / rc_lookahead=40 / rc=2pass / mbtree=1 / bitrate=4410 / ratetol=1.0 / qcomp=0.60 / qpmin=0 / qpmax=69 / qpstep=4 / cplxblur=20.0 / qblur=0.5 / ip_ratio=1.40 / aq=1:1.00\nLanguage : English\nDefault : Yes\nForced : No\n\nAudio\nID : 2\nFormat : DTS\nFormat/Info : Digital Theater Systems\nCodec ID : A_DTS\nDuration : 2h 0mn\nBit rate mode : Constant\nBit rate : 754 Kbps\nChannel(s) : 1 channel\nChannel positions : Front: C\nSampling rate : 48.0 KHz\nBit depth : 24 bits\nCompression mode : Lossy\nStream size : 652 MiB (15%)\nLanguage : English\nDefault : Yes\nForced : No\n\nMenu\n00:00:00.000 : en:00:00:00.000\n00:19:04.435 : en:00:19:04.435\n00:36:09.334 : en:00:36:09.334\n00:45:10.249 : en:00:45:10.249\n00:58:08.610 : en:00:58:08.610\n01:12:23.339 : en:01:12:23.339\n01:28:12.078 : en:01:28:12.078\n01:44:06.449 : en:01:44:06.449","torrent":{"xt":"urn:btih:773bcb7af940a0234ec20fa28d25b5228d657d22","amp;dn":"Operation.Petticoat.1959.720p.BluRay.x264-HD4U.mkv","amp;tr":["udp%3A%2F%2Ftracker.openbittorrent.com%3A80","udp%3A%2F%2Fopen.demonii.com%3A1337","udp%3A%2F%2Ftracker.coppersurfer.tk%3A6969","udp%3A%2F%2Fexodus.desync.com%3A6969"],"infoHash":"773bcb7af940a0234ec20fa28d25b5228d657d22","infoHashBuffer":{"type":"Buffer","data":[119,59,203,122,249,64,160,35,78,194,15,162,141,37,181,34,141,101,125,34]},"announce":[],"urlList":[]}}